{"glyphs":{"0":{"ha":772,"x_min":0,"x_max":0,"o":"m 704 300 l 704 689 b 386 997 704 893 550 997 b 68 689 222 997 68 893 l 68 300 b 386 -8 68 96 222 -8 b 704 300 550 -8 704 96 z m 476 299 b 386 197 476 229 435 197 b 296 299 338 197 296 229 l 296 689 b 386 792 296 758 338 792 b 476 689 435 792 476 758 z "},"1":{"ha":772,"x_min":0,"x_max":0,"o":"m 564 0 l 564 989 l 336 989 l 125 806 l 125 563 l 336 746 l 336 0 z "},"2":{"ha":772,"x_min":0,"x_max":0,"o":"m 710 0 l 710 206 l 351 206 l 588 456 b 710 699 667 539 710 594 b 393 997 710 885 576 997 b 74 696 221 997 74 890 l 301 696 b 393 792 301 772 351 792 b 482 700 451 792 482 754 b 432 594 482 658 468 633 l 74 206 l 74 0 z "},"3":{"ha":772,"x_min":0,"x_max":0,"o":"m 717 296 b 603 511 717 414 657 474 b 706 704 653 543 706 596 b 388 997 706 875 571 997 b 69 699 211 997 69 885 l 297 699 b 388 792 297 758 340 792 b 478 697 435 792 478 760 b 383 604 478 653 451 604 l 351 604 l 351 407 l 383 407 b 489 303 444 407 489 363 b 388 197 489 232 447 197 b 286 301 331 197 286 232 l 58 301 b 388 -8 58 79 224 -8 b 717 296 561 -8 717 89 z "},"4":{"ha":772,"x_min":0,"x_max":0,"o":"m 736 131 l 736 347 l 663 347 l 663 478 l 446 478 l 446 347 l 286 347 l 614 989 l 364 989 l 36 347 l 36 131 l 446 131 l 446 0 l 663 0 l 663 131 z "},"5":{"ha":772,"x_min":0,"x_max":0,"o":"m 711 338 b 619 600 711 431 700 519 b 428 669 579 640 514 669 b 294 631 367 669 314 646 l 294 783 l 690 783 l 690 989 l 88 989 l 88 407 l 297 407 b 390 478 307 433 324 478 b 483 338 446 478 483 447 b 454 222 483 279 475 243 b 390 197 436 204 418 197 b 297 301 332 197 304 236 l 69 301 b 156 78 75 229 85 149 b 390 -8 199 35 279 -8 b 619 76 501 -8 576 33 b 711 338 693 150 711 218 z "},"6":{"ha":772,"x_min":0,"x_max":0,"o":"m 711 310 b 447 608 711 506 568 608 b 392 601 432 608 411 608 l 588 989 l 338 989 l 147 597 b 53 310 101 504 53 411 b 382 -8 53 100 204 -8 b 711 310 560 -8 711 100 z m 483 310 b 382 197 483 236 438 197 b 281 310 326 197 281 236 b 382 422 281 383 326 422 b 483 310 438 422 483 383 z "},"7":{"ha":772,"x_min":0,"x_max":0,"o":"m 725 783 l 725 989 l 47 989 l 47 628 l 264 628 l 264 783 l 475 783 l 167 0 l 417 0 z "},"8":{"ha":772,"x_min":0,"x_max":0,"o":"m 718 296 b 607 508 718 419 644 478 b 708 704 642 538 708 597 b 386 997 708 892 556 997 b 64 704 217 997 64 892 b 165 508 64 597 131 538 b 54 296 128 478 54 419 b 386 -8 54 90 204 -8 b 718 296 568 -8 718 90 z m 481 697 b 386 603 481 644 439 603 b 292 697 333 603 292 644 b 386 792 292 750 333 792 b 481 697 439 792 481 750 z m 490 301 b 386 197 490 244 443 197 b 282 301 329 197 282 244 b 386 406 282 358 329 406 b 490 301 443 406 490 358 z "},"9":{"ha":772,"x_min":0,"x_max":0,"o":"m 719 679 b 390 997 719 889 568 997 b 61 679 213 997 61 889 b 325 381 61 483 204 381 b 381 388 340 381 361 381 l 185 0 l 435 0 l 625 392 b 719 679 671 485 719 578 z m 492 679 b 390 567 492 606 446 567 b 289 679 335 567 289 606 b 390 792 289 753 335 792 b 492 679 446 792 492 753 z "}," ":{"ha":308,"x_min":0,"x_max":0,"o":""},"!":{"ha":508,"x_min":0,"x_max":0,"o":"m 425 989 l 139 989 l 200 329 l 364 329 z m 399 0 l 399 224 l 165 224 l 165 0 z "},"\"":{"ha":678,"x_min":0,"x_max":0,"o":"m 599 664 l 599 989 l 394 989 l 394 664 z m 283 664 l 283 989 l 79 989 l 79 664 z "},"#":{"ha":990,"x_min":0,"x_max":0,"o":"m 925 572 l 925 788 l 844 788 l 878 1000 l 636 1000 l 603 788 l 478 788 l 511 1000 l 269 1000 l 236 788 l 121 788 l 121 572 l 201 572 l 183 450 l 68 450 l 68 235 l 149 235 l 111 0 l 353 0 l 390 235 l 515 235 l 478 0 l 719 0 l 757 235 l 872 235 l 872 450 l 792 450 l 810 572 z m 568 572 l 550 450 l 425 450 l 443 572 z "},"$":{"ha":879,"x_min":0,"x_max":0,"o":"m 819 303 b 746 519 819 394 799 468 b 551 601 704 561 640 589 l 494 610 l 494 783 b 651 726 536 781 608 769 l 804 879 b 522 996 731 953 639 989 l 522 1119 l 347 1119 l 347 993 b 54 685 163 969 54 846 b 122 486 54 600 76 533 b 321 399 167 440 233 410 l 375 392 l 375 208 b 163 278 297 210 213 228 l 7 122 b 347 -8 99 28 211 -4 l 347 -158 l 522 -158 l 522 -1 b 819 303 690 25 819 129 z m 375 618 b 308 647 342 622 321 635 b 289 693 293 663 289 681 b 375 782 289 731 314 771 z m 581 297 b 494 213 581 253 553 224 l 494 382 b 561 356 518 379 544 374 b 581 297 575 342 581 321 z "},"%":{"ha":1190,"x_min":0,"x_max":0,"o":"m 1128 185 l 1128 317 b 918 510 1128 449 1028 510 b 708 317 808 510 708 449 l 708 185 b 918 -8 708 53 808 -8 b 1128 185 1028 -8 1128 53 z m 918 989 l 743 989 l 272 0 l 447 0 z m 482 672 l 482 804 b 272 997 482 936 382 997 b 63 804 163 997 63 936 l 63 672 b 272 479 63 540 163 479 b 482 672 382 479 482 540 z m 967 190 b 918 136 967 150 946 136 b 869 190 890 136 869 150 l 869 311 b 918 365 869 351 890 365 b 967 311 946 365 967 351 z m 321 678 b 272 624 321 638 300 624 b 224 678 244 624 224 638 l 224 799 b 272 853 224 839 244 853 b 321 799 300 853 321 839 z "},"&":{"ha":986,"x_min":0,"x_max":0,"o":"m 986 0 l 793 226 b 908 536 865 306 899 407 l 694 536 b 649 393 690 489 676 425 l 532 528 b 601 579 557 544 601 579 b 699 749 663 625 699 674 b 422 997 699 894 597 997 b 132 751 233 997 132 897 b 225 547 132 653 190 586 b 68 300 151 499 68 414 b 403 -8 68 107 169 -8 b 638 72 535 -8 589 36 l 700 0 z m 485 747 b 446 689 485 725 469 706 b 413 665 446 689 425 674 b 360 746 396 682 360 717 b 422 806 360 781 375 806 b 485 747 464 806 485 781 z m 500 233 b 403 197 478 214 453 197 b 288 301 342 197 288 240 b 346 410 288 349 300 378 z "},"’":{"ha":386,"x_min":0,"x_max":0,"o":"m 307 785 l 307 989 l 79 989 l 79 621 z "},"(":{"ha":497,"x_min":0,"x_max":0,"o":"m 429 22 b 350 115 394 57 376 72 b 328 235 336 139 328 178 l 328 754 b 350 874 328 811 336 850 b 429 967 376 917 394 932 l 276 1119 b 140 963 229 1072 175 1022 b 100 763 104 903 100 831 l 100 226 b 140 26 100 158 104 86 b 276 -131 175 -33 229 -83 z "},")":{"ha":497,"x_min":0,"x_max":0,"o":"m 397 226 l 397 763 b 357 963 397 831 393 903 b 221 1119 322 1022 268 1072 l 68 967 b 147 874 103 932 121 917 b 169 754 161 850 169 811 l 169 235 b 147 115 169 178 161 139 b 68 22 121 72 103 57 l 221 -131 b 357 26 268 -83 322 -33 b 397 226 393 86 397 158 z "},"*":{"ha":703,"x_min":0,"x_max":0,"o":"m 638 629 l 492 704 l 638 779 l 560 914 l 422 825 l 429 989 l 274 989 l 281 825 l 143 914 l 65 779 l 211 704 l 65 629 l 143 494 l 281 583 l 274 419 l 429 419 l 422 583 l 560 494 z "},"+":{"ha":772,"x_min":0,"x_max":0,"o":"m 704 286 l 704 500 l 493 500 l 493 711 l 279 711 l 279 500 l 68 500 l 68 286 l 279 286 l 279 75 l 493 75 l 493 286 z "},",":{"ha":400,"x_min":0,"x_max":0,"o":"m 321 -69 l 321 242 l 79 242 l 79 -247 z "},"-":{"ha":592,"x_min":0,"x_max":0,"o":"m 524 303 l 524 517 l 68 517 l 68 303 z "},".":{"ha":408,"x_min":0,"x_max":0,"o":"m 329 0 l 329 250 l 79 250 l 79 0 z "},"/":{"ha":599,"x_min":0,"x_max":0,"o":"m 607 1092 l 396 1092 l 0 -103 l 211 -103 z "},":":{"ha":440,"x_min":0,"x_max":0,"o":"m 361 351 l 361 601 l 111 601 l 111 351 z m 361 0 l 361 250 l 111 250 l 111 0 z "},";":{"ha":440,"x_min":0,"x_max":0,"o":"m 361 351 l 361 601 l 111 601 l 111 351 z m 357 -69 l 357 242 l 115 242 l 115 -247 z "},"<":{"ha":1426,"x_min":0,"x_max":0,"o":"m 1360 303 l 1360 517 l 451 517 l 874 933 l 589 933 l 65 410 l 589 -114 l 874 -114 l 451 303 z "},"=":{"ha":772,"x_min":0,"x_max":0,"o":"m 704 472 l 704 686 l 68 686 l 68 472 z m 704 133 l 704 347 l 68 347 l 68 133 z "},">":{"ha":1426,"x_min":0,"x_max":0,"o":"m 1361 410 l 838 933 l 553 933 l 975 517 l 65 517 l 65 303 l 975 303 l 553 -114 l 838 -114 z "},"?":{"ha":747,"x_min":0,"x_max":0,"o":"m 706 706 b 394 997 706 899 558 997 b 83 704 226 997 83 893 l 311 704 b 394 792 311 754 336 792 b 478 707 450 792 478 756 b 440 629 478 685 461 653 l 343 515 b 286 361 301 467 286 424 l 286 329 l 514 329 l 514 342 b 539 407 514 365 526 392 l 635 528 b 706 706 674 578 706 633 z m 517 0 l 517 224 l 283 224 l 283 0 z "},"@":{"ha":1089,"x_min":0,"x_max":0,"o":"m 1021 -6 l 1021 624 b 932 908 1021 749 1003 838 b 643 997 860 981 764 997 l 446 997 b 157 908 319 997 228 979 b 68 624 86 838 68 747 l 68 238 b 178 -25 68 111 101 51 l 335 132 b 285 251 299 168 285 193 l 285 615 b 329 747 285 664 290 708 b 461 792 367 785 413 792 l 628 792 b 760 747 676 792 725 782 b 804 615 796 711 804 664 l 804 579 b 653 636 765 617 718 636 b 488 575 585 636 528 614 b 421 314 424 513 421 438 b 488 53 421 190 424 114 b 654 -8 528 14 586 -8 b 811 56 726 -8 768 14 l 811 0 z m 804 314 b 721 181 804 215 776 181 b 638 314 665 181 638 215 b 721 447 638 413 665 447 b 804 314 776 447 804 413 z "},"A":{"ha":907,"x_min":0,"x_max":0,"o":"m 907 0 l 547 989 l 360 989 l 0 0 l 254 0 l 303 147 l 607 147 l 653 0 z m 543 350 l 371 350 l 460 614 z "},"B":{"ha":907,"x_min":0,"x_max":0,"o":"m 839 292 b 717 507 839 431 757 482 b 825 703 747 528 825 590 b 510 989 825 874 715 989 l 100 989 l 100 0 l 531 0 b 839 292 707 0 839 103 z m 582 690 b 494 610 582 651 561 610 l 343 610 l 343 771 l 494 771 b 582 690 561 771 582 729 z m 596 306 b 507 218 596 264 574 218 l 343 218 l 343 392 l 507 392 b 596 306 574 392 596 347 z "},"C":{"ha":846,"x_min":0,"x_max":0,"o":"m 818 314 l 571 314 b 444 208 556 258 525 208 b 349 250 400 208 367 226 b 311 494 326 279 311 314 b 349 739 311 675 326 710 b 444 781 367 763 400 781 b 571 675 525 781 556 731 l 818 675 b 443 997 782 893 631 997 b 168 886 328 997 240 958 b 68 494 64 782 68 643 b 168 103 68 346 64 207 b 443 -8 240 31 328 -8 b 818 314 631 -8 782 96 z "},"D":{"ha":904,"x_min":0,"x_max":0,"o":"m 836 494 b 733 892 836 650 849 776 b 467 989 665 960 569 989 l 100 989 l 100 0 l 467 0 b 733 97 569 0 665 29 b 836 494 849 213 836 339 z m 593 494 b 567 272 593 326 586 300 b 450 217 544 239 511 217 l 343 217 l 343 772 l 450 772 b 567 717 511 772 544 750 b 593 494 586 689 593 661 z "},"E":{"ha":844,"x_min":0,"x_max":0,"o":"m 772 0 l 772 217 l 343 217 l 343 390 l 710 390 l 710 607 l 343 607 l 343 772 l 772 772 l 772 989 l 100 989 l 100 0 z "},"F":{"ha":828,"x_min":0,"x_max":0,"o":"m 772 772 l 772 989 l 100 989 l 100 0 l 343 0 l 343 382 l 710 382 l 710 599 l 343 599 l 343 772 z "},"G":{"ha":899,"x_min":0,"x_max":0,"o":"m 831 432 l 831 569 l 443 569 l 443 367 l 589 367 l 589 353 b 551 247 589 315 579 275 b 443 208 529 224 494 208 b 347 250 399 208 365 226 b 311 494 325 279 311 314 b 347 738 311 675 325 708 b 443 781 365 761 399 781 b 585 669 526 781 565 744 l 829 669 b 443 997 806 832 697 997 b 168 886 324 997 240 958 b 68 494 64 782 68 643 b 168 103 68 346 64 207 b 443 -8 240 31 328 -8 b 731 103 551 -8 646 15 b 831 432 806 179 831 272 z "},"H":{"ha":944,"x_min":0,"x_max":0,"o":"m 844 0 l 844 989 l 601 989 l 601 608 l 343 608 l 343 989 l 100 989 l 100 0 l 343 0 l 343 392 l 601 392 l 601 0 z "},"I":{"ha":443,"x_min":0,"x_max":0,"o":"m 343 0 l 343 989 l 100 989 l 100 0 z "},"J":{"ha":717,"x_min":0,"x_max":0,"o":"m 631 339 l 631 989 l 388 989 l 388 344 b 258 208 388 250 333 208 b 149 258 204 208 179 228 l -11 100 b 258 -8 69 19 143 -8 b 631 339 444 -8 631 104 z "},"K":{"ha":935,"x_min":0,"x_max":0,"o":"m 935 0 l 586 589 l 924 989 l 626 989 l 340 639 l 340 989 l 100 989 l 100 0 l 340 0 l 340 310 l 424 406 l 651 0 z "},"L":{"ha":800,"x_min":0,"x_max":0,"o":"m 758 0 l 758 217 l 343 217 l 343 989 l 100 989 l 100 0 z "},"M":{"ha":1122,"x_min":0,"x_max":0,"o":"m 1022 0 l 1022 989 l 783 989 l 561 553 l 339 989 l 100 989 l 100 0 l 343 0 l 343 474 l 483 229 l 639 229 l 779 474 l 779 0 z "},"N":{"ha":972,"x_min":0,"x_max":0,"o":"m 872 0 l 872 989 l 629 989 l 629 492 l 313 989 l 100 989 l 100 0 l 343 0 l 343 497 l 660 0 z "},"O":{"ha":889,"x_min":0,"x_max":0,"o":"m 821 494 b 721 886 821 643 825 782 b 444 997 649 958 565 997 b 168 886 324 997 240 958 b 68 494 64 782 68 643 b 168 103 68 346 64 207 b 444 -8 240 31 324 -8 b 721 103 565 -8 649 31 b 821 494 825 207 821 346 z m 578 494 b 542 253 578 314 564 282 b 444 208 524 229 489 208 b 347 253 400 208 365 229 b 311 494 325 282 311 314 b 347 738 311 675 325 708 b 444 781 365 761 400 781 b 542 738 489 781 524 761 b 578 494 564 708 578 675 z "},"P":{"ha":871,"x_min":0,"x_max":0,"o":"m 829 671 b 492 989 829 833 711 989 l 100 989 l 100 0 l 343 0 l 343 353 l 492 353 b 829 671 711 353 829 508 z m 586 671 b 481 571 586 619 547 571 l 343 571 l 343 771 l 481 771 b 586 671 547 771 586 722 z "},"Q":{"ha":889,"x_min":0,"x_max":0,"o":"m 836 85 l 764 157 b 821 494 824 253 821 371 b 721 886 821 643 825 782 b 444 997 649 958 565 997 b 168 886 324 997 240 958 b 68 494 64 782 68 643 b 168 103 68 346 64 207 b 444 -8 240 31 324 -8 b 636 38 521 -8 583 7 l 713 -39 z m 578 494 b 572 349 578 428 575 382 l 525 396 l 401 272 l 464 210 b 444 208 457 208 451 208 b 347 253 400 208 365 229 b 311 494 325 282 311 314 b 347 738 311 675 325 708 b 444 781 365 761 400 781 b 542 738 489 781 524 761 b 578 494 564 708 578 675 z "},"R":{"ha":906,"x_min":0,"x_max":0,"o":"m 882 0 l 668 413 b 829 671 746 451 829 536 b 492 989 829 833 711 989 l 100 989 l 100 0 l 343 0 l 343 368 l 425 368 l 600 0 z m 586 671 b 481 571 586 619 547 571 l 343 571 l 343 771 l 481 771 b 586 671 547 771 586 722 z "},"S":{"ha":824,"x_min":0,"x_max":0,"o":"m 764 303 b 690 519 764 394 743 468 b 496 601 649 561 585 589 l 376 618 b 308 647 342 622 321 635 b 289 693 293 663 289 681 b 408 785 289 736 324 785 b 596 726 451 785 533 789 l 749 879 b 415 997 664 964 557 997 b 54 685 190 997 54 865 b 122 486 54 600 76 533 b 321 399 167 440 233 411 l 440 382 b 506 356 472 378 493 368 b 525 297 519 340 525 321 b 383 208 525 240 479 208 b 163 278 304 208 214 226 l 7 122 b 382 -8 107 19 231 -8 b 764 303 590 -8 764 101 z "},"T":{"ha":813,"x_min":0,"x_max":0,"o":"m 771 772 l 771 989 l 42 989 l 42 772 l 285 772 l 285 0 l 528 0 l 528 772 z "},"U":{"ha":917,"x_min":0,"x_max":0,"o":"m 833 347 l 833 989 l 590 989 l 590 353 b 457 208 590 261 538 208 b 326 353 376 208 326 261 l 326 989 l 83 989 l 83 347 b 457 -8 83 131 251 -8 b 833 347 663 -8 833 131 z "},"V":{"ha":835,"x_min":0,"x_max":0,"o":"m 835 989 l 582 989 l 418 436 l 251 989 l 0 989 l 326 0 l 507 0 z "},"W":{"ha":1258,"x_min":0,"x_max":0,"o":"m 1258 989 l 1004 989 l 875 467 l 715 989 l 543 989 l 383 467 l 254 989 l 0 989 l 272 0 l 469 0 l 629 488 l 789 0 l 988 0 z "},"X":{"ha":881,"x_min":0,"x_max":0,"o":"m 881 0 l 572 507 l 861 989 l 585 989 l 440 710 l 296 989 l 19 989 l 308 507 l 0 0 l 278 0 l 440 304 l 603 0 z "},"Y":{"ha":840,"x_min":0,"x_max":0,"o":"m 840 989 l 575 989 l 421 633 l 265 989 l 0 989 l 299 403 l 299 0 l 542 0 l 542 403 z "},"Z":{"ha":754,"x_min":0,"x_max":0,"o":"m 713 0 l 713 217 l 332 217 l 713 800 l 713 989 l 58 989 l 58 772 l 421 772 l 42 189 l 42 0 z "},"[":{"ha":578,"x_min":0,"x_max":0,"o":"m 522 -103 l 522 103 l 328 103 l 328 886 l 522 886 l 522 1092 l 100 1092 l 100 -103 z "},"\\":{"ha":599,"x_min":0,"x_max":0,"o":"m 599 -103 l 211 1067 l 0 1067 l 388 -103 z "},"]":{"ha":578,"x_min":0,"x_max":0,"o":"m 478 -103 l 478 1092 l 56 1092 l 56 886 l 250 886 l 250 103 l 56 103 l 56 -103 z "},"^":{"ha":889,"x_min":0,"x_max":0,"o":"m 810 521 l 550 1000 l 339 1000 l 79 521 l 319 521 l 444 750 l 569 521 z "},"_":{"ha":889,"x_min":0,"x_max":0,"o":"m 889 -258 l 889 -108 l 0 -108 l 0 -258 z "},"‘":{"ha":386,"x_min":0,"x_max":0,"o":"m 307 786 l 307 1156 l 79 989 l 79 786 z "},"a":{"ha":744,"x_min":0,"x_max":0,"o":"m 671 0 l 671 485 b 342 756 671 667 556 756 b 69 656 215 756 146 732 l 211 514 b 331 564 247 550 272 564 b 443 471 410 564 443 539 l 443 451 l 292 451 b 38 235 114 451 38 347 b 103 60 38 165 60 103 b 282 -7 144 18 207 -7 b 449 61 361 -7 403 15 l 449 0 z m 443 281 b 421 206 443 244 438 221 b 331 178 396 182 375 178 b 256 240 281 178 256 207 b 328 300 256 275 283 300 l 443 300 z "},"b":{"ha":790,"x_min":0,"x_max":0,"o":"m 731 374 b 661 688 731 483 735 614 b 481 756 618 731 553 756 b 314 693 407 756 356 735 l 314 989 l 86 989 l 86 0 l 307 0 l 307 61 b 479 -8 353 15 401 -8 b 661 60 551 -8 618 17 b 731 374 735 133 731 264 z m 503 374 b 408 197 503 265 493 197 b 314 374 324 197 314 265 b 408 550 314 482 324 550 b 503 374 493 550 503 482 z "},"c":{"ha":660,"x_min":0,"x_max":0,"o":"m 635 88 l 481 242 b 389 197 451 213 426 197 b 318 226 358 197 338 207 b 281 374 292 254 281 303 b 318 521 281 444 292 493 b 389 550 338 540 358 550 b 481 506 426 550 451 535 l 635 660 b 389 756 574 721 493 756 b 53 374 260 756 53 700 b 389 -8 53 47 260 -8 b 635 88 493 -8 574 26 z "},"d":{"ha":790,"x_min":0,"x_max":0,"o":"m 704 0 l 704 989 l 476 989 l 476 693 b 310 756 435 735 383 756 b 129 688 238 756 172 731 b 60 374 56 614 60 483 b 129 60 60 264 56 133 b 311 -8 172 17 239 -8 b 483 61 389 -8 438 15 l 483 0 z m 476 374 b 382 197 476 265 467 197 b 288 374 297 197 288 265 b 382 550 288 482 297 550 b 476 374 467 550 476 482 z "},"e":{"ha":776,"x_min":0,"x_max":0,"o":"m 724 300 l 724 401 b 388 756 724 597 604 756 b 53 374 192 756 53 618 b 408 -8 53 51 243 -8 b 699 110 547 -8 622 33 l 563 246 b 408 183 522 206 488 183 b 276 300 324 183 276 239 z m 499 451 l 276 451 b 289 510 276 469 279 490 b 388 568 303 542 333 568 b 486 510 442 568 472 542 b 499 451 496 490 499 469 z "},"f":{"ha":497,"x_min":0,"x_max":0,"o":"m 463 543 l 463 718 l 338 718 l 338 767 b 383 813 338 796 353 813 l 463 813 l 463 1004 l 342 1004 b 110 783 176 1004 110 886 l 110 718 l 42 718 l 42 543 l 110 543 l 110 0 l 338 0 l 338 543 z "},"g":{"ha":779,"x_min":0,"x_max":0,"o":"m 693 54 l 693 747 l 472 747 l 472 686 b 306 756 426 732 382 756 b 129 689 233 756 172 732 b 60 401 61 621 60 538 b 129 114 60 265 61 182 b 304 47 172 71 232 47 b 465 110 374 47 424 68 l 465 56 b 344 -58 465 7 440 -58 b 217 -11 293 -58 251 -46 l 75 -153 b 356 -250 151 -229 239 -250 b 693 54 560 -250 693 -122 z m 465 401 b 376 253 465 325 460 253 b 288 401 293 253 288 325 b 376 550 288 478 293 550 b 465 401 460 550 465 478 z "},"h":{"ha":796,"x_min":0,"x_max":0,"o":"m 717 0 l 717 485 b 478 756 717 636 639 756 b 314 686 421 756 361 733 l 314 989 l 86 989 l 86 0 l 314 0 l 314 453 b 401 550 314 533 372 550 b 489 453 431 550 489 533 l 489 0 z "},"i":{"ha":400,"x_min":0,"x_max":0,"o":"m 314 824 l 314 997 l 86 997 l 86 824 z m 314 0 l 314 718 l 86 718 l 86 0 z "},"j":{"ha":400,"x_min":0,"x_max":0,"o":"m 314 824 l 314 997 l 86 997 l 86 824 z m 314 -29 l 314 718 l 86 718 l 86 -12 b 40 -58 86 -42 71 -58 l -39 -58 l -39 -250 l 82 -250 b 314 -29 247 -250 314 -132 z "},"k":{"ha":796,"x_min":0,"x_max":0,"o":"m 796 0 l 514 438 l 789 747 l 515 747 l 314 486 l 314 989 l 86 989 l 86 0 l 314 0 l 314 225 l 358 274 l 514 0 z "},"l":{"ha":474,"x_min":0,"x_max":0,"o":"m 432 0 l 432 192 l 353 192 b 307 238 322 192 307 208 l 307 989 l 79 989 l 79 221 b 311 0 79 118 146 0 z "},"m":{"ha":1215,"x_min":0,"x_max":0,"o":"m 1136 0 l 1136 478 b 1054 692 1136 557 1118 628 b 875 756 1014 732 946 756 b 664 676 789 756 729 733 b 482 756 615 732 556 756 b 308 686 422 756 354 732 l 308 747 l 86 747 l 86 0 l 314 0 l 314 447 b 406 550 314 533 375 550 b 497 447 436 550 497 533 l 497 0 l 725 0 l 725 447 b 817 550 725 533 786 550 b 908 447 847 550 908 533 l 908 0 z "},"n":{"ha":804,"x_min":0,"x_max":0,"o":"m 725 0 l 725 478 b 650 692 725 557 714 628 b 482 756 610 732 553 756 b 308 686 422 756 354 732 l 308 747 l 86 747 l 86 0 l 314 0 l 314 447 b 406 550 314 533 375 550 b 497 447 436 550 497 533 l 497 0 z "},"o":{"ha":764,"x_min":0,"x_max":0,"o":"m 704 374 b 622 660 704 519 685 592 b 382 756 578 707 503 756 b 142 660 261 756 186 707 b 60 374 79 592 60 519 b 142 88 60 226 79 156 b 382 -8 186 40 261 -8 b 622 88 503 -8 578 40 b 704 374 685 156 704 226 z m 476 374 b 443 218 476 300 472 247 b 382 197 429 204 410 197 b 321 218 354 197 335 204 b 288 374 292 247 288 300 b 321 529 288 447 292 500 b 382 550 335 543 354 550 b 443 529 410 550 429 543 b 476 374 472 500 476 447 z "},"p":{"ha":790,"x_min":0,"x_max":0,"o":"m 731 374 b 661 688 731 483 735 614 b 479 756 618 731 551 756 b 307 686 401 756 353 732 l 307 747 l 86 747 l 86 -242 l 314 -242 l 314 54 b 481 -8 356 13 407 -8 b 661 60 553 -8 618 17 b 731 374 735 133 731 264 z m 503 374 b 408 197 503 265 493 197 b 314 374 324 197 314 265 b 408 550 314 482 324 550 b 503 374 493 550 503 482 z "},"q":{"ha":790,"x_min":0,"x_max":0,"o":"m 704 -242 l 704 747 l 483 747 l 483 686 b 311 756 438 732 389 756 b 129 688 239 756 172 731 b 60 374 56 614 60 483 b 129 60 60 264 56 133 b 310 -8 172 17 238 -8 b 476 54 383 -8 435 13 l 476 -242 z m 476 374 b 382 197 476 265 467 197 b 288 374 297 197 288 265 b 382 550 288 482 297 550 b 476 374 467 550 476 482 z "},"r":{"ha":660,"x_min":0,"x_max":0,"o":"m 660 686 b 485 756 608 738 558 756 b 308 686 407 756 342 719 l 308 747 l 86 747 l 86 0 l 314 0 l 314 447 b 406 550 314 532 375 550 b 488 511 444 550 465 533 z "},"s":{"ha":700,"x_min":0,"x_max":0,"o":"m 663 244 b 438 472 663 364 594 457 l 322 483 b 274 525 271 489 274 517 b 347 568 274 542 292 568 b 506 524 406 568 468 561 l 646 664 b 351 756 572 738 474 756 b 54 508 203 756 54 674 b 271 292 54 363 142 304 l 386 281 b 440 233 431 276 440 254 b 343 185 440 194 376 185 b 161 247 304 185 224 185 l 14 100 b 339 -8 117 -3 226 -8 b 663 244 513 -8 663 68 z "},"t":{"ha":504,"x_min":0,"x_max":0,"o":"m 449 0 l 449 192 l 376 192 b 331 238 346 192 331 208 l 331 543 l 449 543 l 449 718 l 331 718 l 331 932 l 103 932 l 103 718 l 35 718 l 35 543 l 103 543 l 103 221 b 335 0 103 118 169 0 z "},"u":{"ha":804,"x_min":0,"x_max":0,"o":"m 718 0 l 718 747 l 490 747 l 490 300 b 399 197 490 214 429 197 b 307 300 368 197 307 214 l 307 747 l 79 747 l 79 269 b 154 56 79 190 90 119 b 322 -8 194 15 251 -8 b 496 61 382 -8 450 15 l 496 0 z "},"v":{"ha":724,"x_min":0,"x_max":0,"o":"m 724 747 l 485 747 l 363 360 l 239 747 l 0 747 l 275 0 l 449 0 z "},"w":{"ha":1083,"x_min":0,"x_max":0,"o":"m 1083 747 l 843 747 l 750 360 l 621 747 l 463 747 l 333 360 l 240 747 l 0 747 l 225 0 l 407 0 l 542 410 l 676 0 l 858 0 z "},"x":{"ha":772,"x_min":0,"x_max":0,"o":"m 772 0 l 513 382 l 763 747 l 489 747 l 385 567 l 283 747 l 10 747 l 260 382 l 0 0 l 274 0 l 385 189 l 499 0 z "},"y":{"ha":714,"x_min":0,"x_max":0,"o":"m 725 747 l 486 747 l 365 360 l 239 747 l 0 747 l 249 74 l 228 11 b 151 -44 213 -35 192 -44 l 103 -44 l 103 -250 l 189 -250 b 357 -187 256 -250 313 -235 b 415 -89 381 -164 400 -132 z "},"z":{"ha":679,"x_min":0,"x_max":0,"o":"m 624 0 l 624 206 l 333 206 l 624 579 l 624 747 l 58 747 l 58 542 l 326 542 l 42 168 l 42 0 z "},"{":{"ha":719,"x_min":0,"x_max":0,"o":"m 664 -103 l 664 103 l 567 103 b 488 122 528 103 503 107 b 465 211 471 139 465 165 l 465 356 b 364 494 465 468 390 488 b 465 633 390 501 465 521 l 465 778 b 488 867 465 824 471 850 b 567 886 503 882 528 886 l 664 886 l 664 1092 l 469 1092 b 304 1033 396 1092 340 1069 b 238 871 257 986 238 928 l 238 706 b 214 622 238 667 231 639 b 136 597 197 606 172 597 l 56 597 l 56 392 l 136 392 b 214 367 172 392 197 383 b 238 283 231 350 238 322 l 238 118 b 304 -44 238 61 257 3 b 469 -103 340 -81 396 -103 z "},"|":{"ha":506,"x_min":0,"x_max":0,"o":"m 367 -103 l 367 1092 l 139 1092 l 139 -103 z "},"}":{"ha":719,"x_min":0,"x_max":0,"o":"m 664 392 l 664 597 l 583 597 b 506 622 547 597 522 606 b 482 706 489 639 482 667 l 482 871 b 415 1033 482 928 463 986 b 250 1092 379 1069 324 1092 l 56 1092 l 56 886 l 153 886 b 232 867 192 886 217 882 b 254 778 249 850 254 824 l 254 633 b 356 494 254 521 329 501 b 254 356 329 488 254 468 l 254 211 b 232 122 254 165 249 139 b 153 103 217 107 192 103 l 56 103 l 56 -103 l 250 -103 b 415 -44 324 -103 379 -81 b 482 118 463 3 482 61 l 482 283 b 506 367 482 322 489 350 b 583 392 522 383 547 392 z "},"~":{"ha":897,"x_min":0,"x_max":0,"o":"m 856 393 l 708 538 b 586 481 658 488 624 481 b 469 515 544 481 510 492 b 299 563 406 553 361 563 b 42 429 200 563 132 519 l 186 285 b 308 342 236 335 271 342 b 425 307 350 342 385 331 b 596 260 489 269 533 260 b 856 393 694 260 765 303 z "},"¡":{"ha":508,"x_min":0,"x_max":0,"o":"m 343 524 l 343 747 l 110 747 l 110 524 z m 369 -242 l 308 418 l 144 418 l 83 -242 z "},"¢":{"ha":693,"x_min":0,"x_max":0,"o":"m 668 242 l 519 390 b 458 344 503 374 485 356 l 458 672 b 519 626 485 661 503 643 l 668 775 b 486 881 621 822 561 863 l 486 989 l 311 989 l 311 881 b 53 508 169 849 53 731 b 311 136 53 286 169 168 l 311 0 l 486 0 l 486 136 b 668 242 561 154 621 194 z m 339 347 b 321 363 332 351 326 357 b 281 508 296 390 281 438 b 322 656 281 579 296 628 b 339 669 328 661 333 665 z "},"£":{"ha":829,"x_min":0,"x_max":0,"o":"m 774 0 l 774 217 l 375 217 l 375 386 l 504 386 l 504 561 l 375 561 l 375 644 b 504 781 375 739 429 781 b 614 731 558 781 583 761 l 774 889 b 504 997 693 969 619 997 b 132 650 318 997 132 885 l 132 561 l 49 561 l 49 386 l 132 386 l 132 0 z "},"⁄":{"ha":307,"x_min":0,"x_max":0,"o":"m 476 989 l 301 989 l -169 0 l 6 0 z "},"¥":{"ha":840,"x_min":0,"x_max":0,"o":"m 840 989 l 575 989 l 421 633 l 265 989 l 0 989 l 174 647 l 90 647 l 90 472 l 264 472 l 299 403 l 299 333 l 90 333 l 90 158 l 299 158 l 299 0 l 542 0 l 542 158 l 750 158 l 750 333 l 542 333 l 542 403 l 576 472 l 750 472 l 750 647 l 667 647 z "},"ƒ":{"ha":613,"x_min":0,"x_max":0,"o":"m 571 813 l 571 1003 l 451 1004 b 181 783 286 1006 199 886 l 142 561 l 43 561 l 43 386 l 111 386 l 0 -242 l 228 -242 l 339 386 l 494 386 l 494 561 l 369 561 l 406 767 b 460 813 411 796 429 813 z "},"§":{"ha":717,"x_min":0,"x_max":0,"o":"m 660 396 b 450 661 660 554 589 610 l 375 689 b 297 756 321 708 297 731 b 363 804 297 778 315 804 b 428 746 397 804 428 789 l 639 746 b 363 997 639 878 565 997 b 86 749 161 997 86 867 b 178 574 86 647 132 601 b 63 379 136 547 63 476 b 272 114 63 221 133 165 l 347 86 b 429 6 419 60 429 28 b 360 -51 429 -24 406 -51 b 290 10 315 -51 290 -21 l 74 10 b 360 -250 74 -185 225 -250 b 646 14 494 -250 646 -174 b 547 201 646 124 597 171 b 660 396 586 228 660 299 z m 443 388 b 415 314 443 343 426 324 b 361 296 406 306 388 296 b 307 314 335 296 317 306 b 279 388 296 324 279 343 b 307 461 279 432 296 451 b 361 479 317 469 335 479 b 415 461 388 479 406 469 b 443 388 426 451 443 432 z "},"¤":{"ha":936,"x_min":0,"x_max":0,"o":"m 871 158 l 769 260 b 806 410 792 306 806 356 b 769 560 806 464 792 514 l 871 661 l 719 813 l 618 711 b 468 747 572 733 522 747 b 318 711 414 747 364 733 l 217 813 l 65 661 l 167 560 b 131 410 144 514 131 464 b 167 260 131 356 144 306 l 65 158 l 217 7 l 318 108 b 468 72 364 86 414 72 b 618 108 522 72 572 86 l 719 7 z m 600 410 b 468 278 600 338 540 278 b 336 410 396 278 336 338 b 468 542 336 482 396 542 b 600 410 540 542 600 482 z "},"'":{"ha":364,"x_min":0,"x_max":0,"o":"m 285 664 l 285 989 l 79 989 l 79 664 z "},"“":{"ha":710,"x_min":0,"x_max":0,"o":"m 631 786 l 631 1156 l 403 989 l 403 786 z m 306 786 l 306 1156 l 79 989 l 79 786 z "},"«":{"ha":933,"x_min":0,"x_max":0,"o":"m 850 13 l 850 281 l 738 389 l 850 496 l 850 764 l 471 389 z m 421 13 l 421 281 l 311 389 l 421 496 l 421 764 l 42 389 z "},"‹":{"ha":504,"x_min":0,"x_max":0,"o":"m 421 13 l 421 281 l 311 389 l 421 496 l 421 764 l 42 389 z "},"›":{"ha":504,"x_min":0,"x_max":0,"o":"m 463 389 l 83 764 l 83 496 l 194 389 l 83 281 l 83 13 z "},"ﬁ":{"ha":869,"x_min":0,"x_max":0,"o":"m 783 824 l 783 997 l 556 997 l 556 824 z m 783 0 l 783 718 l 556 718 l 556 0 z m 456 543 l 456 718 l 331 718 l 331 767 b 376 813 331 796 346 813 l 456 813 l 456 1004 l 335 1004 b 103 783 169 1004 103 886 l 103 718 l 35 718 l 35 543 l 103 543 l 103 0 l 331 0 l 331 543 z "},"ﬂ":{"ha":936,"x_min":0,"x_max":0,"o":"m 908 0 l 908 192 l 829 192 b 783 238 799 192 783 208 l 783 989 l 556 989 l 556 221 b 788 0 556 118 622 0 z m 456 543 l 456 718 l 331 718 l 331 767 b 376 813 331 796 346 813 l 456 813 l 456 1004 l 335 1004 b 103 783 169 1004 103 886 l 103 718 l 35 718 l 35 543 l 103 543 l 103 0 l 331 0 l 331 543 z "},"–":{"ha":772,"x_min":0,"x_max":0,"o":"m 704 303 l 704 517 l 68 517 l 68 303 z "},"†":{"ha":783,"x_min":0,"x_max":0,"o":"m 718 542 l 718 747 l 506 747 l 506 989 l 278 989 l 278 747 l 65 747 l 65 542 l 278 542 l 278 0 l 506 0 l 506 542 z "},"‡":{"ha":783,"x_min":0,"x_max":0,"o":"m 718 0 l 718 206 l 506 206 l 506 542 l 718 542 l 718 747 l 506 747 l 506 989 l 278 989 l 278 747 l 65 747 l 65 542 l 278 542 l 278 206 l 65 206 l 65 0 l 278 0 l 278 -242 l 506 -242 l 506 0 z "},"·":{"ha":408,"x_min":0,"x_max":0,"o":"m 329 285 l 329 535 l 79 535 l 79 285 z "},"¶":{"ha":982,"x_min":0,"x_max":0,"o":"m 882 -242 l 882 989 l 376 989 b 42 699 185 989 42 900 b 301 414 42 535 178 414 l 301 -242 l 529 -242 l 529 772 l 654 772 l 654 -242 z "},"•":{"ha":653,"x_min":0,"x_max":0,"o":"m 553 464 b 326 690 553 589 451 690 b 100 464 201 690 100 589 b 326 238 100 339 201 238 b 553 464 451 238 553 339 z "},"‚":{"ha":383,"x_min":0,"x_max":0,"o":"m 307 0 l 307 204 l 79 204 l 79 -164 z "},"„":{"ha":714,"x_min":0,"x_max":0,"o":"m 631 0 l 631 204 l 403 204 l 403 -164 z m 306 0 l 306 204 l 79 204 l 79 -164 z "},"”":{"ha":710,"x_min":0,"x_max":0,"o":"m 631 785 l 631 989 l 403 989 l 403 621 z m 306 785 l 306 989 l 79 989 l 79 621 z "},"»":{"ha":933,"x_min":0,"x_max":0,"o":"m 892 389 l 513 764 l 513 496 l 622 389 l 513 281 l 513 13 z m 463 389 l 83 764 l 83 496 l 194 389 l 83 281 l 83 13 z "},"…":{"ha":1249,"x_min":0,"x_max":0,"o":"m 1169 0 l 1169 236 l 933 236 l 933 0 z m 742 0 l 742 236 l 506 236 l 506 0 z m 315 0 l 315 236 l 79 236 l 79 0 z "},"‰":{"ha":1707,"x_min":0,"x_max":0,"o":"m 1644 185 l 1644 317 b 1435 510 1644 449 1544 510 b 1225 317 1325 510 1225 449 l 1225 185 b 1435 -8 1225 53 1325 -8 b 1644 185 1544 -8 1644 53 z m 1128 185 l 1128 317 b 918 510 1128 449 1028 510 b 708 317 808 510 708 449 l 708 185 b 918 -8 708 53 808 -8 b 1128 185 1028 -8 1128 53 z m 918 989 l 743 989 l 272 0 l 447 0 z m 482 672 l 482 804 b 272 997 482 936 382 997 b 63 804 163 997 63 936 l 63 672 b 272 479 63 540 163 479 b 482 672 382 479 482 540 z m 1483 190 b 1435 136 1483 150 1463 136 b 1386 190 1407 136 1386 150 l 1386 311 b 1435 365 1386 351 1407 365 b 1483 311 1463 365 1483 351 z m 967 190 b 918 136 967 150 946 136 b 869 190 890 136 869 150 l 869 311 b 918 365 869 351 890 365 b 967 311 946 365 967 351 z m 321 678 b 272 624 321 638 300 624 b 224 678 244 624 224 638 l 224 799 b 272 853 224 839 244 853 b 321 799 300 853 321 839 z "},"¿":{"ha":747,"x_min":0,"x_max":0,"o":"m 464 524 l 464 747 l 231 747 l 231 524 z m 664 43 l 436 43 b 353 -44 436 -7 411 -44 b 269 40 297 -44 269 -8 b 307 118 269 63 286 94 l 404 232 b 461 386 446 281 461 324 l 461 418 l 233 418 l 233 406 b 208 340 233 382 221 356 l 113 219 b 42 42 74 169 42 114 b 353 -250 42 -151 189 -250 b 664 43 521 -250 664 -146 z "},"`":{"ha":694,"x_min":0,"x_max":0,"o":"m 428 847 l 360 1097 l 126 1097 l 290 847 z "},"´":{"ha":694,"x_min":0,"x_max":0,"o":"m 568 1097 l 335 1097 l 267 847 l 404 847 z "},"ˆ":{"ha":694,"x_min":0,"x_max":0,"o":"m 624 847 l 435 1096 l 260 1096 l 71 847 l 238 847 l 347 963 l 457 847 z "},"˜":{"ha":694,"x_min":0,"x_max":0,"o":"m 615 949 l 518 1044 b 438 1007 485 1011 463 1007 b 361 1031 410 1007 388 1015 b 249 1061 319 1056 290 1061 b 79 974 183 1061 139 1033 l 174 878 b 254 915 207 911 229 915 b 332 892 282 915 306 907 b 444 861 374 867 403 861 b 615 949 510 861 556 889 z "},"¯":{"ha":694,"x_min":0,"x_max":0,"o":"m 574 888 l 574 1033 l 121 1033 l 121 888 z "},"˘":{"ha":694,"x_min":0,"x_max":0,"o":"m 575 1042 l 428 1042 b 347 976 424 990 382 976 b 267 1042 313 976 271 990 l 119 1042 b 347 824 124 878 240 824 b 575 1042 454 824 571 878 z "},"˙":{"ha":694,"x_min":0,"x_max":0,"o":"m 461 824 l 461 997 l 233 997 l 233 824 z "},"¨":{"ha":694,"x_min":0,"x_max":0,"o":"m 597 846 l 597 1047 l 411 1047 l 411 846 z m 283 846 l 283 1047 l 97 1047 l 97 846 z "},"˚":{"ha":694,"x_min":0,"x_max":0,"o":"m 539 1015 b 347 1207 539 1122 453 1207 b 156 1015 242 1207 156 1121 b 347 824 156 910 242 824 b 539 1015 453 824 539 910 z m 419 1015 b 347 943 419 976 386 943 b 275 1015 308 943 275 976 b 347 1088 275 1054 308 1088 b 419 1015 386 1088 419 1054 z "},"¸":{"ha":694,"x_min":0,"x_max":0,"o":"m 463 -78 l 303 -78 l 210 -278 l 413 -278 z "},"˝":{"ha":694,"x_min":0,"x_max":0,"o":"m 660 1097 l 426 1097 l 358 847 l 496 847 z m 336 1097 l 103 1097 l 35 847 l 174 847 z "},"˛":{"ha":694,"x_min":0,"x_max":0,"o":"m 474 -278 l 381 -78 l 221 -78 l 271 -278 z "},"ˇ":{"ha":694,"x_min":0,"x_max":0,"o":"m 624 1096 l 457 1096 l 347 981 l 238 1096 l 71 1096 l 260 847 l 435 847 z "},"—":{"ha":1518,"x_min":0,"x_max":0,"o":"m 1450 306 l 1450 525 l 68 525 l 68 306 z "},"Æ":{"ha":1407,"x_min":0,"x_max":0,"o":"m 1335 0 l 1335 217 l 906 217 l 906 390 l 1272 390 l 1272 607 l 906 607 l 906 772 l 1335 772 l 1335 989 l 514 989 l 0 0 l 261 0 l 368 207 l 663 207 l 663 0 z m 663 410 l 474 410 l 663 772 z "},"ª":{"ha":635,"x_min":0,"x_max":0,"o":"m 565 393 l 565 781 b 303 997 565 926 474 997 b 85 918 201 997 146 979 l 199 804 b 293 844 228 833 246 844 b 383 769 357 844 383 824 l 383 754 l 263 754 b 60 581 121 754 60 671 b 113 442 60 525 78 476 b 254 388 146 408 194 388 b 388 442 318 388 351 406 l 388 393 z m 383 617 b 365 558 383 588 378 571 b 293 538 347 540 329 538 b 236 586 256 538 236 560 b 292 633 236 613 256 633 l 383 633 z "},"Ł":{"ha":832,"x_min":0,"x_max":0,"o":"m 790 0 l 790 217 l 375 217 l 375 456 l 532 554 l 532 756 l 375 657 l 375 989 l 132 989 l 132 504 l 49 451 l 49 249 l 132 301 l 132 0 z "},"Ø":{"ha":889,"x_min":0,"x_max":0,"o":"m 821 494 b 721 886 821 643 825 782 l 715 892 l 792 1050 l 628 1050 l 590 972 b 444 997 549 989 500 997 b 168 886 324 997 240 958 b 68 494 64 782 68 643 b 168 103 68 346 64 207 l 174 97 l 97 -61 l 261 -61 l 299 17 b 444 -8 340 0 389 -8 b 721 103 565 -8 649 31 b 821 494 825 207 821 346 z m 506 767 l 315 365 b 311 494 313 397 311 439 b 347 738 311 675 325 708 b 444 781 365 761 400 781 b 506 767 468 781 489 775 z m 578 494 b 542 253 578 314 564 282 b 444 208 524 229 489 208 b 383 224 421 208 400 214 l 574 624 b 578 494 576 592 578 550 z "},"Œ":{"ha":1322,"x_min":0,"x_max":0,"o":"m 1250 0 l 1250 217 l 821 217 l 821 390 l 1188 390 l 1188 607 l 821 607 l 821 772 l 1250 772 l 1250 989 l 578 989 l 578 953 b 438 997 539 989 478 997 b 168 892 317 997 240 964 b 68 494 67 790 68 643 b 168 97 68 346 67 199 b 436 -8 240 25 315 -8 b 578 36 476 -8 539 0 l 578 0 z m 578 494 b 542 253 578 314 564 282 b 444 208 524 229 489 208 b 347 253 400 208 365 229 b 311 494 325 282 311 314 b 347 738 311 675 325 708 b 444 781 365 761 400 781 b 542 738 489 781 524 761 b 578 494 564 708 578 675 z "},"º":{"ha":647,"x_min":0,"x_max":0,"o":"m 582 692 b 515 921 582 808 565 867 b 324 997 481 958 419 997 b 132 921 228 997 167 958 b 65 692 82 867 65 808 b 132 463 65 574 82 517 b 324 386 167 425 228 386 b 515 463 419 386 481 425 b 582 692 565 517 582 574 z m 399 692 b 372 567 399 633 396 590 b 324 550 361 556 346 550 b 275 567 301 550 286 556 b 249 692 251 590 249 633 b 275 817 249 750 251 793 b 324 833 286 828 301 833 b 372 817 346 833 361 828 b 399 692 396 793 399 750 z "},"æ":{"ha":1167,"x_min":0,"x_max":0,"o":"m 1114 300 l 1114 401 b 778 756 1114 597 994 756 b 578 693 700 756 632 735 b 342 756 524 735 444 756 b 69 656 215 756 146 732 l 211 514 b 331 564 247 550 272 564 b 443 471 410 564 443 539 l 443 451 l 292 451 b 38 235 114 451 38 347 b 103 60 38 165 60 103 b 282 -8 146 17 207 -8 b 538 82 374 -8 447 -1 b 799 -8 608 11 707 -8 b 1089 110 938 -8 1013 33 l 953 246 b 799 183 913 206 878 183 b 667 300 714 183 667 239 z m 889 451 l 667 451 b 679 510 667 469 669 490 b 778 568 693 542 724 568 b 876 510 832 568 863 542 b 889 451 886 490 889 469 z m 443 281 b 421 206 443 244 438 221 b 331 178 396 182 375 178 b 256 240 281 178 256 207 b 328 300 256 275 283 300 l 443 300 z "},"ı":{"ha":400,"x_min":0,"x_max":0,"o":"m 314 0 l 314 747 l 86 747 l 86 0 z "},"ł":{"ha":483,"x_min":0,"x_max":0,"o":"m 456 0 l 456 192 l 376 192 b 331 238 346 192 331 208 l 331 524 l 399 565 l 399 756 l 331 714 l 331 989 l 103 989 l 103 578 l 35 536 l 35 346 l 103 388 l 103 221 b 335 0 103 118 169 0 z "},"ø":{"ha":764,"x_min":0,"x_max":0,"o":"m 704 374 b 618 664 704 486 699 579 l 703 808 l 574 808 l 526 728 b 382 756 488 744 440 756 b 142 660 261 756 186 707 b 60 374 79 592 60 519 b 146 83 60 260 64 169 l 61 -61 l 190 -61 l 238 19 b 382 -8 276 3 324 -8 b 622 88 503 -8 578 40 b 704 374 685 156 704 226 z m 429 540 l 290 304 b 288 374 288 324 288 347 b 321 529 288 447 292 500 b 382 550 335 543 354 550 b 429 540 401 550 417 547 z m 476 374 b 443 218 476 300 472 247 b 382 197 429 204 410 197 b 335 207 363 197 347 200 l 474 443 b 476 374 476 424 476 400 z "},"œ":{"ha":1200,"x_min":0,"x_max":0,"o":"m 1147 300 l 1147 401 b 811 756 1147 597 1028 756 b 599 682 728 756 654 731 b 382 756 553 721 483 756 b 142 660 261 756 186 707 b 60 374 79 592 60 519 b 142 88 60 226 79 156 b 382 -8 186 40 261 -8 b 594 61 481 -8 549 24 b 832 -8 661 7 750 -8 b 1122 110 971 -8 1046 33 l 986 246 b 832 183 946 206 911 183 b 700 300 747 183 700 239 z m 922 451 l 700 451 b 713 510 700 469 703 490 b 811 568 726 542 757 568 b 910 510 865 568 896 542 b 922 451 919 490 922 469 z m 476 374 b 443 218 476 300 472 247 b 382 197 429 204 410 197 b 321 218 354 197 335 204 b 288 374 292 247 288 300 b 321 529 288 447 292 500 b 382 550 335 543 354 550 b 443 529 410 550 429 543 b 476 374 472 500 476 447 z "},"ß":{"ha":811,"x_min":0,"x_max":0,"o":"m 742 240 l 742 451 b 657 594 742 539 700 574 b 742 746 693 615 742 656 b 419 997 742 919 610 997 b 86 721 235 997 86 925 l 86 0 l 315 0 l 315 701 b 419 799 315 765 338 799 b 496 778 453 799 481 792 b 513 738 507 768 513 754 b 451 679 513 690 481 679 l 419 679 l 419 504 l 446 504 b 496 486 467 504 485 499 b 513 438 507 475 513 460 l 513 258 b 494 208 513 238 507 219 b 446 192 483 197 467 192 l 419 192 l 419 0 l 492 0 b 683 63 582 0 643 22 b 742 240 724 104 742 164 z "},"Ð":{"ha":943,"x_min":0,"x_max":0,"o":"m 875 494 b 772 892 875 650 888 776 b 506 989 704 960 608 989 l 139 989 l 139 593 l 49 593 l 49 407 l 139 407 l 139 0 l 506 0 b 772 97 608 0 704 29 b 875 494 888 213 875 339 z m 632 494 b 606 272 632 326 625 300 b 489 217 583 239 550 217 l 382 217 l 382 407 l 507 407 l 507 593 l 382 593 l 382 772 l 489 772 b 606 717 550 772 583 750 b 632 494 625 689 632 661 z "},"ð":{"ha":764,"x_min":0,"x_max":0,"o":"m 693 360 b 606 703 693 504 667 568 l 569 782 l 626 782 l 626 940 l 492 940 l 461 1004 l 217 1004 l 247 940 l 168 940 l 168 782 l 325 782 l 353 726 b 246 701 313 725 276 715 b 150 636 204 683 171 658 b 71 360 89 571 71 500 b 150 83 71 218 89 149 b 382 -8 193 38 265 -8 b 614 83 499 -8 571 38 b 693 360 675 149 693 218 z m 465 360 b 436 217 465 292 463 243 b 382 197 424 204 407 197 b 328 217 357 197 340 204 b 299 360 301 243 299 292 b 328 503 299 428 301 476 b 382 522 340 515 357 522 b 436 503 407 522 424 515 b 465 360 463 476 465 428 z "},"Š":{"ha":824,"x_min":0,"x_max":0,"o":"m 764 303 b 690 519 764 394 743 468 b 496 601 649 561 585 589 l 376 618 b 308 647 342 622 321 635 b 289 693 293 663 289 681 b 408 785 289 736 324 785 b 596 726 451 785 533 789 l 749 879 b 415 997 664 964 557 997 b 54 685 190 997 54 865 b 122 486 54 600 76 533 b 321 399 167 440 233 411 l 440 382 b 506 356 472 378 493 368 b 525 297 519 340 525 321 b 383 208 525 240 479 208 b 163 278 304 208 214 226 l 7 122 b 382 -8 107 19 231 -8 b 764 303 590 -8 764 101 z m 689 1335 l 522 1335 l 413 1219 l 303 1335 l 136 1335 l 325 1086 l 500 1086 z "},"š":{"ha":700,"x_min":0,"x_max":0,"o":"m 663 244 b 438 472 663 364 594 457 l 322 483 b 274 525 271 489 274 517 b 347 568 274 542 292 568 b 506 524 406 568 468 561 l 646 664 b 351 756 572 738 474 756 b 54 508 203 756 54 674 b 271 292 54 363 142 304 l 386 281 b 440 233 431 276 440 254 b 343 185 440 194 376 185 b 161 247 304 185 224 185 l 14 100 b 339 -8 117 -3 226 -8 b 663 244 513 -8 663 68 z m 628 1096 l 461 1096 l 351 981 l 242 1096 l 75 1096 l 264 847 l 439 847 z "},"Ý":{"ha":840,"x_min":0,"x_max":0,"o":"m 840 989 l 575 989 l 421 633 l 265 989 l 0 989 l 299 403 l 299 0 l 542 0 l 542 403 z m 640 1336 l 407 1336 l 339 1086 l 476 1086 z "},"ý":{"ha":714,"x_min":0,"x_max":0,"o":"m 725 747 l 486 747 l 365 360 l 239 747 l 0 747 l 249 74 l 228 11 b 151 -44 213 -35 192 -44 l 103 -44 l 103 -250 l 189 -250 b 357 -187 256 -250 313 -235 b 415 -89 381 -164 400 -132 z m 578 1097 l 344 1097 l 276 847 l 414 847 z "},"Þ":{"ha":871,"x_min":0,"x_max":0,"o":"m 829 500 b 492 818 829 663 711 818 l 343 818 l 343 989 l 100 989 l 100 0 l 343 0 l 343 182 l 492 182 b 829 500 711 182 829 338 z m 586 500 b 481 400 586 449 547 400 l 343 400 l 343 600 l 481 600 b 586 500 547 600 586 551 z "},"þ":{"ha":793,"x_min":0,"x_max":0,"o":"m 731 374 b 661 688 731 483 735 614 b 481 756 618 731 553 756 b 314 693 407 756 356 735 l 314 989 l 86 989 l 86 -242 l 314 -242 l 314 54 b 481 -8 356 13 407 -8 b 661 60 553 -8 618 17 b 731 374 735 133 731 264 z m 503 374 b 408 197 503 265 493 197 b 314 374 324 197 314 265 b 408 550 314 482 324 550 b 503 374 493 550 503 482 z "},"Ž":{"ha":754,"x_min":0,"x_max":0,"o":"m 713 0 l 713 217 l 332 217 l 713 800 l 713 989 l 58 989 l 58 772 l 421 772 l 42 189 l 42 0 z m 656 1335 l 489 1335 l 379 1219 l 269 1335 l 103 1335 l 292 1086 l 467 1086 z "},"ž":{"ha":679,"x_min":0,"x_max":0,"o":"m 624 0 l 624 206 l 333 206 l 624 579 l 624 747 l 58 747 l 58 542 l 326 542 l 42 168 l 42 0 z m 617 1096 l 450 1096 l 340 981 l 231 1096 l 64 1096 l 253 847 l 428 847 z "},"½":{"ha":1256,"x_min":0,"x_max":0,"o":"m 1200 0 l 1200 144 l 997 144 l 1118 260 b 1200 414 1171 311 1200 347 b 1001 599 1200 531 1115 599 b 801 413 896 599 801 536 l 963 413 b 1001 454 963 449 986 454 b 1042 414 1026 454 1042 438 b 1011 358 1042 392 1033 381 l 801 144 l 801 0 z m 915 989 l 740 989 l 269 0 l 444 0 z m 342 396 l 342 989 l 181 989 l 49 875 l 49 694 l 181 808 l 181 396 z "},"¼":{"ha":1210,"x_min":0,"x_max":0,"o":"m 1154 74 l 1154 226 l 1118 226 l 1118 278 l 967 278 l 967 226 l 893 226 l 1086 593 l 910 593 l 718 226 l 718 74 l 967 74 l 967 0 l 1118 0 l 1118 74 z m 915 989 l 740 989 l 269 0 l 444 0 z m 342 396 l 342 989 l 181 989 l 49 875 l 49 694 l 181 808 l 181 396 z "},"¹":{"ha":432,"x_min":0,"x_max":0,"o":"m 342 396 l 342 989 l 181 989 l 49 875 l 49 694 l 181 808 l 181 396 z "},"¾":{"ha":1238,"x_min":0,"x_max":0,"o":"m 1182 74 l 1182 226 l 1146 226 l 1146 278 l 994 278 l 994 226 l 921 226 l 1114 593 l 938 593 l 746 226 l 746 74 l 994 74 l 994 0 l 1146 0 l 1146 74 z m 943 989 l 768 989 l 297 0 l 472 0 z m 465 578 b 404 703 465 647 428 681 b 460 814 428 721 460 747 b 261 994 460 918 375 994 b 61 807 151 994 60 922 l 222 807 b 261 850 221 836 242 850 b 300 808 281 850 300 836 b 258 768 300 794 289 768 l 236 768 l 236 631 l 258 631 b 304 583 283 631 304 608 b 260 535 304 551 288 535 b 215 585 232 535 214 553 l 56 585 b 260 390 54 443 160 390 b 465 578 367 390 465 449 z "},"³":{"ha":521,"x_min":0,"x_max":0,"o":"m 465 578 b 404 703 465 647 428 681 b 460 814 428 721 460 747 b 261 994 460 918 375 994 b 61 807 151 994 60 922 l 222 807 b 261 850 221 836 242 850 b 300 808 281 850 300 836 b 258 768 300 794 289 768 l 236 768 l 236 631 l 258 631 b 304 583 283 631 304 608 b 260 535 304 551 288 535 b 215 585 232 535 214 553 l 56 585 b 260 390 54 443 160 390 b 465 578 367 390 465 449 z "},"²":{"ha":510,"x_min":0,"x_max":0,"o":"m 454 396 l 454 540 l 251 540 l 372 656 b 454 810 425 707 454 743 b 256 994 454 926 369 994 b 56 808 150 994 56 932 l 217 808 b 256 850 217 844 240 850 b 296 810 281 850 296 833 b 265 754 296 788 288 776 l 56 540 l 56 396 z "},"¦":{"ha":506,"x_min":0,"x_max":0,"o":"m 367 606 l 367 1092 l 139 1092 l 139 606 z m 367 -103 l 367 383 l 139 383 l 139 -103 z "},"−":{"ha":772,"x_min":0,"x_max":0,"o":"m 704 303 l 704 517 l 68 517 l 68 303 z "},"×":{"ha":772,"x_min":0,"x_max":0,"o":"m 718 224 l 529 410 l 718 597 l 572 742 l 385 554 l 199 742 l 54 597 l 243 410 l 54 224 l 200 79 l 386 267 l 574 79 z "},"Ä":{"ha":907,"x_min":0,"x_max":0,"o":"m 907 0 l 547 989 l 360 989 l 0 0 l 254 0 l 303 147 l 607 147 l 653 0 z m 543 350 l 371 350 l 460 614 z m 703 1085 l 703 1286 l 517 1286 l 517 1085 z m 389 1085 l 389 1286 l 203 1286 l 203 1085 z "},"Å":{"ha":907,"x_min":0,"x_max":0,"o":"m 907 0 l 547 989 l 360 989 l 0 0 l 254 0 l 303 147 l 607 147 l 653 0 z m 543 350 l 371 350 l 460 614 z m 644 1240 b 453 1432 644 1347 558 1432 b 261 1240 347 1432 261 1346 b 453 1049 261 1135 347 1049 b 644 1240 558 1049 644 1135 z m 525 1240 b 453 1168 525 1201 492 1168 b 381 1240 414 1168 381 1201 b 453 1313 381 1279 414 1313 b 525 1240 492 1313 525 1279 z "},"Ç":{"ha":846,"x_min":0,"x_max":0,"o":"m 818 314 l 571 314 b 444 208 556 258 525 208 b 349 250 400 208 367 226 b 311 494 326 279 311 314 b 349 739 311 675 326 710 b 444 781 367 763 400 781 b 571 675 525 781 556 731 l 818 675 b 443 997 782 893 631 997 b 168 886 328 997 240 958 b 68 494 64 782 68 643 b 168 103 68 346 64 207 b 443 -8 240 31 328 -8 b 818 314 631 -8 782 96 z m 535 -78 l 375 -78 l 282 -278 l 485 -278 z "},"É":{"ha":844,"x_min":0,"x_max":0,"o":"m 772 0 l 772 217 l 343 217 l 343 390 l 710 390 l 710 607 l 343 607 l 343 772 l 772 772 l 772 989 l 100 989 l 100 0 z m 649 1336 l 415 1336 l 347 1086 l 485 1086 z "},"Ñ":{"ha":972,"x_min":0,"x_max":0,"o":"m 872 0 l 872 989 l 629 989 l 629 492 l 313 989 l 100 989 l 100 0 l 343 0 l 343 497 l 660 0 z m 754 1188 l 657 1283 b 576 1246 624 1250 601 1246 b 500 1269 549 1246 526 1254 b 388 1300 458 1294 429 1300 b 218 1213 322 1300 278 1272 l 313 1117 b 393 1154 346 1150 368 1154 b 471 1131 421 1154 444 1146 b 583 1100 513 1106 542 1100 b 754 1188 649 1100 694 1128 z "},"Ö":{"ha":889,"x_min":0,"x_max":0,"o":"m 821 494 b 721 886 821 643 825 782 b 444 997 649 958 565 997 b 168 886 324 997 240 958 b 68 494 64 782 68 643 b 168 103 68 346 64 207 b 444 -8 240 31 324 -8 b 721 103 565 -8 649 31 b 821 494 825 207 821 346 z m 578 494 b 542 253 578 314 564 282 b 444 208 524 229 489 208 b 347 253 400 208 365 229 b 311 494 325 282 311 314 b 347 738 311 675 325 708 b 444 781 365 761 400 781 b 542 738 489 781 524 761 b 578 494 564 708 578 675 z m 694 1085 l 694 1286 l 508 1286 l 508 1085 z m 381 1085 l 381 1286 l 194 1286 l 194 1085 z "},"Ü":{"ha":917,"x_min":0,"x_max":0,"o":"m 833 347 l 833 989 l 590 989 l 590 353 b 457 208 590 261 538 208 b 326 353 376 208 326 261 l 326 989 l 83 989 l 83 347 b 457 -8 83 131 251 -8 b 833 347 663 -8 833 131 z m 708 1085 l 708 1286 l 522 1286 l 522 1085 z m 394 1085 l 394 1286 l 208 1286 l 208 1085 z "},"á":{"ha":744,"x_min":0,"x_max":0,"o":"m 671 0 l 671 485 b 342 756 671 667 556 756 b 69 656 215 756 146 732 l 211 514 b 331 564 247 550 272 564 b 443 471 410 564 443 539 l 443 451 l 292 451 b 38 235 114 451 38 347 b 103 60 38 165 60 103 b 282 -7 144 18 207 -7 b 449 61 361 -7 403 15 l 449 0 z m 443 281 b 421 206 443 244 438 221 b 331 178 396 182 375 178 b 256 240 281 178 256 207 b 328 300 256 275 283 300 l 443 300 z m 590 1097 l 357 1097 l 289 847 l 426 847 z "},"à":{"ha":744,"x_min":0,"x_max":0,"o":"m 671 0 l 671 485 b 342 756 671 667 556 756 b 69 656 215 756 146 732 l 211 514 b 331 564 247 550 272 564 b 443 471 410 564 443 539 l 443 451 l 292 451 b 38 235 114 451 38 347 b 103 60 38 165 60 103 b 282 -7 144 18 207 -7 b 449 61 361 -7 403 15 l 449 0 z m 443 281 b 421 206 443 244 438 221 b 331 178 396 182 375 178 b 256 240 281 178 256 207 b 328 300 256 275 283 300 l 443 300 z m 450 847 l 382 1097 l 149 1097 l 313 847 z "},"â":{"ha":744,"x_min":0,"x_max":0,"o":"m 671 0 l 671 485 b 342 756 671 667 556 756 b 69 656 215 756 146 732 l 211 514 b 331 564 247 550 272 564 b 443 471 410 564 443 539 l 443 451 l 292 451 b 38 235 114 451 38 347 b 103 60 38 165 60 103 b 282 -7 144 18 207 -7 b 449 61 361 -7 403 15 l 449 0 z m 443 281 b 421 206 443 244 438 221 b 331 178 396 182 375 178 b 256 240 281 178 256 207 b 328 300 256 275 283 300 l 443 300 z m 646 847 l 457 1096 l 282 1096 l 93 847 l 260 847 l 369 963 l 479 847 z "},"ä":{"ha":744,"x_min":0,"x_max":0,"o":"m 671 0 l 671 485 b 342 756 671 667 556 756 b 69 656 215 756 146 732 l 211 514 b 331 564 247 550 272 564 b 443 471 410 564 443 539 l 443 451 l 292 451 b 38 235 114 451 38 347 b 103 60 38 165 60 103 b 282 -7 144 18 207 -7 b 449 61 361 -7 403 15 l 449 0 z m 443 281 b 421 206 443 244 438 221 b 331 178 396 182 375 178 b 256 240 281 178 256 207 b 328 300 256 275 283 300 l 443 300 z m 619 846 l 619 1047 l 433 1047 l 433 846 z m 306 846 l 306 1047 l 119 1047 l 119 846 z "},"ã":{"ha":744,"x_min":0,"x_max":0,"o":"m 671 0 l 671 485 b 342 756 671 667 556 756 b 69 656 215 756 146 732 l 211 514 b 331 564 247 550 272 564 b 443 471 410 564 443 539 l 443 451 l 292 451 b 38 235 114 451 38 347 b 103 60 38 165 60 103 b 282 -7 144 18 207 -7 b 449 61 361 -7 403 15 l 449 0 z m 443 281 b 421 206 443 244 438 221 b 331 178 396 182 375 178 b 256 240 281 178 256 207 b 328 300 256 275 283 300 l 443 300 z m 638 949 l 540 1044 b 460 1007 507 1011 485 1007 b 383 1031 432 1007 410 1015 b 271 1061 342 1056 313 1061 b 101 974 206 1061 161 1033 l 196 878 b 276 915 229 911 251 915 b 354 892 304 915 328 907 b 467 861 396 867 425 861 b 638 949 532 861 578 889 z "},"å":{"ha":744,"x_min":0,"x_max":0,"o":"m 671 0 l 671 485 b 342 756 671 667 556 756 b 69 656 215 756 146 732 l 211 514 b 331 564 247 550 272 564 b 443 471 410 564 443 539 l 443 451 l 292 451 b 38 235 114 451 38 347 b 103 60 38 165 60 103 b 282 -7 144 18 207 -7 b 449 61 361 -7 403 15 l 449 0 z m 443 281 b 421 206 443 244 438 221 b 331 178 396 182 375 178 b 256 240 281 178 256 207 b 328 300 256 275 283 300 l 443 300 z m 561 1015 b 369 1207 561 1122 475 1207 b 178 1015 264 1207 178 1121 b 369 824 178 910 264 824 b 561 1015 475 824 561 910 z m 442 1015 b 369 943 442 976 408 943 b 297 1015 331 943 297 976 b 369 1088 297 1054 331 1088 b 442 1015 408 1088 442 1054 z "},"ç":{"ha":660,"x_min":0,"x_max":0,"o":"m 635 88 l 481 242 b 389 197 451 213 426 197 b 318 226 358 197 338 207 b 281 374 292 254 281 303 b 318 521 281 444 292 493 b 389 550 338 540 358 550 b 481 506 426 550 451 535 l 635 660 b 389 756 574 721 493 756 b 53 374 260 756 53 700 b 389 -8 53 47 260 -8 b 635 88 493 -8 574 26 z m 463 -78 l 303 -78 l 210 -278 l 413 -278 z "},"é":{"ha":776,"x_min":0,"x_max":0,"o":"m 724 300 l 724 401 b 388 756 724 597 604 756 b 53 374 192 756 53 618 b 408 -8 53 51 243 -8 b 699 110 547 -8 622 33 l 563 246 b 408 183 522 206 488 183 b 276 300 324 183 276 239 z m 499 451 l 276 451 b 289 510 276 469 279 490 b 388 568 303 542 333 568 b 486 510 442 568 472 542 b 499 451 496 490 499 469 z m 614 1097 l 381 1097 l 313 847 l 450 847 z "},"è":{"ha":776,"x_min":0,"x_max":0,"o":"m 724 300 l 724 401 b 388 756 724 597 604 756 b 53 374 192 756 53 618 b 408 -8 53 51 243 -8 b 699 110 547 -8 622 33 l 563 246 b 408 183 522 206 488 183 b 276 300 324 183 276 239 z m 499 451 l 276 451 b 289 510 276 469 279 490 b 388 568 303 542 333 568 b 486 510 442 568 472 542 b 499 451 496 490 499 469 z m 474 847 l 406 1097 l 172 1097 l 336 847 z "},"ê":{"ha":776,"x_min":0,"x_max":0,"o":"m 724 300 l 724 401 b 388 756 724 597 604 756 b 53 374 192 756 53 618 b 408 -8 53 51 243 -8 b 699 110 547 -8 622 33 l 563 246 b 408 183 522 206 488 183 b 276 300 324 183 276 239 z m 499 451 l 276 451 b 289 510 276 469 279 490 b 388 568 303 542 333 568 b 486 510 442 568 472 542 b 499 451 496 490 499 469 z m 669 847 l 481 1096 l 306 1096 l 117 847 l 283 847 l 393 963 l 503 847 z "},"ë":{"ha":776,"x_min":0,"x_max":0,"o":"m 724 300 l 724 401 b 388 756 724 597 604 756 b 53 374 192 756 53 618 b 408 -8 53 51 243 -8 b 699 110 547 -8 622 33 l 563 246 b 408 183 522 206 488 183 b 276 300 324 183 276 239 z m 499 451 l 276 451 b 289 510 276 469 279 490 b 388 568 303 542 333 568 b 486 510 442 568 472 542 b 499 451 496 490 499 469 z m 643 846 l 643 1047 l 457 1047 l 457 846 z m 329 846 l 329 1047 l 143 1047 l 143 846 z "},"í":{"ha":400,"x_min":0,"x_max":0,"o":"m 314 0 l 314 747 l 86 747 l 86 0 z m 396 1097 l 163 1097 l 94 847 l 232 847 z "},"ì":{"ha":400,"x_min":0,"x_max":0,"o":"m 314 0 l 314 747 l 86 747 l 86 0 z m 388 847 l 319 1097 l 86 1097 l 250 847 z "},"î":{"ha":400,"x_min":0,"x_max":0,"o":"m 314 0 l 314 747 l 86 747 l 86 0 z m 639 847 l 450 1096 l 275 1096 l 86 847 l 253 847 l 363 963 l 472 847 z "},"ï":{"ha":400,"x_min":0,"x_max":0,"o":"m 314 0 l 314 747 l 86 747 l 86 0 z m 586 846 l 586 1047 l 400 1047 l 400 846 z m 272 846 l 272 1047 l 86 1047 l 86 846 z "},"ñ":{"ha":804,"x_min":0,"x_max":0,"o":"m 725 0 l 725 478 b 650 692 725 557 714 628 b 482 756 610 732 553 756 b 308 686 422 756 354 732 l 308 747 l 86 747 l 86 0 l 314 0 l 314 447 b 406 550 314 533 375 550 b 497 447 436 550 497 533 l 497 0 z m 674 949 l 576 1044 b 496 1007 543 1011 521 1007 b 419 1031 468 1007 446 1015 b 307 1061 378 1056 349 1061 b 138 974 242 1061 197 1033 l 232 878 b 313 915 265 911 288 915 b 390 892 340 915 364 907 b 503 861 432 867 461 861 b 674 949 568 861 614 889 z "},"ó":{"ha":764,"x_min":0,"x_max":0,"o":"m 704 374 b 622 660 704 519 685 592 b 382 756 578 707 503 756 b 142 660 261 756 186 707 b 60 374 79 592 60 519 b 142 88 60 226 79 156 b 382 -8 186 40 261 -8 b 622 88 503 -8 578 40 b 704 374 685 156 704 226 z m 476 374 b 443 218 476 300 472 247 b 382 197 429 204 410 197 b 321 218 354 197 335 204 b 288 374 292 247 288 300 b 321 529 288 447 292 500 b 382 550 335 543 354 550 b 443 529 410 550 429 543 b 476 374 472 500 476 447 z m 603 1097 l 369 1097 l 301 847 l 439 847 z "},"ò":{"ha":764,"x_min":0,"x_max":0,"o":"m 704 374 b 622 660 704 519 685 592 b 382 756 578 707 503 756 b 142 660 261 756 186 707 b 60 374 79 592 60 519 b 142 88 60 226 79 156 b 382 -8 186 40 261 -8 b 622 88 503 -8 578 40 b 704 374 685 156 704 226 z m 476 374 b 443 218 476 300 472 247 b 382 197 429 204 410 197 b 321 218 354 197 335 204 b 288 374 292 247 288 300 b 321 529 288 447 292 500 b 382 550 335 543 354 550 b 443 529 410 550 429 543 b 476 374 472 500 476 447 z m 463 847 l 394 1097 l 161 1097 l 325 847 z "},"ô":{"ha":764,"x_min":0,"x_max":0,"o":"m 704 374 b 622 660 704 519 685 592 b 382 756 578 707 503 756 b 142 660 261 756 186 707 b 60 374 79 592 60 519 b 142 88 60 226 79 156 b 382 -8 186 40 261 -8 b 622 88 503 -8 578 40 b 704 374 685 156 704 226 z m 476 374 b 443 218 476 300 472 247 b 382 197 429 204 410 197 b 321 218 354 197 335 204 b 288 374 292 247 288 300 b 321 529 288 447 292 500 b 382 550 335 543 354 550 b 443 529 410 550 429 543 b 476 374 472 500 476 447 z m 658 847 l 469 1096 l 294 1096 l 106 847 l 272 847 l 382 963 l 492 847 z "},"ö":{"ha":764,"x_min":0,"x_max":0,"o":"m 704 374 b 622 660 704 519 685 592 b 382 756 578 707 503 756 b 142 660 261 756 186 707 b 60 374 79 592 60 519 b 142 88 60 226 79 156 b 382 -8 186 40 261 -8 b 622 88 503 -8 578 40 b 704 374 685 156 704 226 z m 476 374 b 443 218 476 300 472 247 b 382 197 429 204 410 197 b 321 218 354 197 335 204 b 288 374 292 247 288 300 b 321 529 288 447 292 500 b 382 550 335 543 354 550 b 443 529 410 550 429 543 b 476 374 472 500 476 447 z m 632 846 l 632 1047 l 446 1047 l 446 846 z m 318 846 l 318 1047 l 132 1047 l 132 846 z "},"õ":{"ha":764,"x_min":0,"x_max":0,"o":"m 704 374 b 622 660 704 519 685 592 b 382 756 578 707 503 756 b 142 660 261 756 186 707 b 60 374 79 592 60 519 b 142 88 60 226 79 156 b 382 -8 186 40 261 -8 b 622 88 503 -8 578 40 b 704 374 685 156 704 226 z m 476 374 b 443 218 476 300 472 247 b 382 197 429 204 410 197 b 321 218 354 197 335 204 b 288 374 292 247 288 300 b 321 529 288 447 292 500 b 382 550 335 543 354 550 b 443 529 410 550 429 543 b 476 374 472 500 476 447 z m 650 949 l 553 1044 b 472 1007 519 1011 497 1007 b 396 1031 444 1007 422 1015 b 283 1061 354 1056 325 1061 b 114 974 218 1061 174 1033 l 208 878 b 289 915 242 911 264 915 b 367 892 317 915 340 907 b 479 861 408 867 438 861 b 650 949 544 861 590 889 z "},"ú":{"ha":804,"x_min":0,"x_max":0,"o":"m 718 0 l 718 747 l 490 747 l 490 300 b 399 197 490 214 429 197 b 307 300 368 197 307 214 l 307 747 l 79 747 l 79 269 b 154 56 79 190 90 119 b 322 -8 194 15 251 -8 b 496 61 382 -8 450 15 l 496 0 z m 619 1097 l 386 1097 l 318 847 l 456 847 z "},"ù":{"ha":804,"x_min":0,"x_max":0,"o":"m 718 0 l 718 747 l 490 747 l 490 300 b 399 197 490 214 429 197 b 307 300 368 197 307 214 l 307 747 l 79 747 l 79 269 b 154 56 79 190 90 119 b 322 -8 194 15 251 -8 b 496 61 382 -8 450 15 l 496 0 z m 479 847 l 411 1097 l 178 1097 l 342 847 z "},"û":{"ha":804,"x_min":0,"x_max":0,"o":"m 718 0 l 718 747 l 490 747 l 490 300 b 399 197 490 214 429 197 b 307 300 368 197 307 214 l 307 747 l 79 747 l 79 269 b 154 56 79 190 90 119 b 322 -8 194 15 251 -8 b 496 61 382 -8 450 15 l 496 0 z m 675 847 l 486 1096 l 311 1096 l 122 847 l 289 847 l 399 963 l 508 847 z "},"ü":{"ha":804,"x_min":0,"x_max":0,"o":"m 718 0 l 718 747 l 490 747 l 490 300 b 399 197 490 214 429 197 b 307 300 368 197 307 214 l 307 747 l 79 747 l 79 269 b 154 56 79 190 90 119 b 322 -8 194 15 251 -8 b 496 61 382 -8 450 15 l 496 0 z m 649 846 l 649 1047 l 463 1047 l 463 846 z m 335 846 l 335 1047 l 149 1047 l 149 846 z "},"°":{"ha":675,"x_min":0,"x_max":0,"o":"m 610 742 b 338 1014 610 892 488 1014 b 65 742 188 1014 65 892 b 338 469 65 592 188 469 b 610 742 488 469 610 592 z m 428 742 b 338 651 428 692 388 651 b 247 742 288 651 247 692 b 338 832 247 792 288 832 b 428 742 388 832 428 792 z "},"®":{"ha":1142,"x_min":0,"x_max":0,"o":"m 1074 494 b 571 997 1074 772 849 997 b 68 494 293 997 68 772 b 571 -8 68 217 293 -8 b 1074 494 849 -8 1074 217 z m 931 494 b 571 126 931 278 776 126 b 211 494 365 126 211 278 b 571 863 211 711 365 863 b 931 494 776 863 931 711 z m 806 232 l 707 451 b 792 588 749 472 792 517 b 613 757 792 674 729 757 l 378 757 l 378 232 l 521 232 l 521 428 l 564 428 l 643 232 z m 649 588 b 593 535 649 560 628 535 l 521 535 l 521 640 l 593 640 b 649 588 628 640 649 615 z "},"©":{"ha":1142,"x_min":0,"x_max":0,"o":"m 1074 494 b 571 997 1074 772 849 997 b 68 494 293 997 68 772 b 571 -8 68 217 293 -8 b 1074 494 849 -8 1074 217 z m 931 494 b 571 126 931 278 776 126 b 211 494 365 126 211 278 b 571 863 211 711 365 863 b 931 494 776 863 931 711 z m 767 300 l 674 393 b 583 356 642 367 619 356 b 475 494 519 356 475 401 b 583 633 475 588 519 633 b 674 596 619 633 642 622 l 767 689 b 583 761 717 732 660 761 b 332 494 458 761 332 682 b 583 228 332 307 458 228 b 767 300 660 228 717 257 z "},"™":{"ha":1351,"x_min":0,"x_max":0,"o":"m 1258 396 l 1258 989 l 1096 989 l 933 697 l 771 989 l 608 989 l 608 396 l 771 396 l 771 700 l 864 518 l 1003 518 l 1096 700 l 1096 396 z m 524 844 l 524 989 l 71 989 l 71 844 l 217 844 l 217 396 l 378 396 l 378 844 z "},"≠":{"ha":889,"x_min":0,"x_max":0,"o":"m 821 133 l 821 347 l 506 347 l 597 472 l 821 472 l 821 686 l 754 686 l 821 778 l 683 881 l 540 686 l 68 686 l 68 472 l 383 472 l 292 347 l 68 347 l 68 133 l 135 133 l 68 42 l 206 -61 l 349 133 z "},"∞":{"ha":1217,"x_min":0,"x_max":0,"o":"m 1151 410 b 861 696 1151 568 1057 696 b 608 574 761 696 672 643 b 356 696 544 643 456 696 b 65 410 160 696 65 568 b 356 124 65 251 160 124 b 608 246 456 124 544 176 b 861 124 672 176 761 124 b 1151 410 1057 124 1151 251 z m 929 403 b 863 335 929 357 896 335 b 767 403 824 335 794 369 b 863 471 794 436 824 471 b 929 403 896 471 929 449 z m 450 403 b 354 335 422 369 393 335 b 288 403 321 335 288 357 b 354 471 288 449 321 471 b 450 403 393 471 422 436 z "},"±":{"ha":772,"x_min":0,"x_max":0,"o":"m 704 515 l 704 729 l 493 729 l 493 940 l 279 940 l 279 729 l 68 729 l 68 515 l 279 515 l 279 304 l 493 304 l 493 515 z m 704 0 l 704 214 l 68 214 l 68 0 z "},"≤":{"ha":1426,"x_min":0,"x_max":0,"o":"m 1246 28 l 604 669 l 1197 667 l 996 868 l 254 868 l 254 126 l 456 -75 l 453 518 l 1094 -124 z "},"≥":{"ha":1426,"x_min":0,"x_max":0,"o":"m 1171 128 l 1171 868 l 431 868 l 229 667 l 822 671 l 179 28 l 331 -124 l 974 519 l 969 -74 z "},"µ":{"ha":811,"x_min":0,"x_max":0,"o":"m 725 0 l 725 747 l 497 747 l 497 300 b 406 197 497 214 436 197 b 314 300 375 197 314 214 l 314 747 l 86 747 l 86 -242 l 314 -242 l 314 -8 b 329 -8 319 -8 324 -8 b 503 61 389 -8 457 15 l 503 0 z "},"∂":{"ha":779,"x_min":0,"x_max":0,"o":"m 693 360 l 693 651 b 356 997 693 851 585 997 b 75 900 239 997 151 976 l 217 758 b 344 806 251 793 293 806 b 464 713 444 806 464 726 b 464 711 464 713 464 713 b 376 728 439 724 406 728 b 150 638 260 728 193 683 b 71 360 89 572 71 500 b 150 83 71 218 89 149 b 382 -8 193 38 265 -8 b 614 83 499 -8 571 38 b 693 360 675 149 693 218 z m 465 360 b 436 217 465 292 463 243 b 382 197 424 204 407 197 b 328 217 357 197 340 204 b 299 360 301 243 299 292 b 328 503 299 428 301 476 b 382 522 340 515 357 522 b 436 503 407 522 424 515 b 465 360 463 476 465 428 z "},"∑":{"ha":768,"x_min":0,"x_max":0,"o":"m 726 -244 l 726 -28 l 322 -28 l 497 301 l 497 528 l 333 839 l 719 839 l 719 1056 l 47 1056 l 47 867 l 293 419 l 42 -56 l 42 -244 z "},"∏":{"ha":944,"x_min":0,"x_max":0,"o":"m 844 -242 l 844 1056 l 100 1056 l 100 -242 l 343 -242 l 343 840 l 601 840 l 601 -242 z "},"π":{"ha":822,"x_min":0,"x_max":0,"o":"m 736 0 l 736 747 l 86 747 l 86 0 l 314 0 l 314 531 l 508 531 l 508 0 z "},"∫":{"ha":778,"x_min":0,"x_max":0,"o":"m 681 822 l 681 1014 l 579 1014 b 268 729 399 1014 268 918 l 268 51 b 172 -40 268 -14 231 -40 l 96 -40 l 96 -232 l 197 -232 b 508 53 378 -232 508 -136 l 508 731 b 604 822 508 796 546 822 z "},"Ω":{"ha":889,"x_min":0,"x_max":0,"o":"m 821 0 l 821 217 l 758 217 b 793 283 775 238 786 261 b 821 494 814 346 821 417 b 721 886 821 643 825 782 b 444 997 649 958 565 997 b 168 886 324 997 240 958 b 68 494 64 782 68 643 b 96 283 68 417 75 346 b 131 217 103 261 114 238 l 68 217 l 68 0 l 392 0 l 392 189 b 347 224 372 199 357 211 b 311 481 325 253 311 300 b 347 735 311 661 325 706 b 444 781 365 758 400 781 b 542 735 489 781 524 758 b 578 481 564 706 578 661 b 542 224 578 300 564 253 b 497 189 532 211 517 199 l 497 0 z "},"¬":{"ha":772,"x_min":0,"x_max":0,"o":"m 713 122 l 713 544 l 60 544 l 60 331 l 499 331 l 499 122 z "},"√":{"ha":856,"x_min":0,"x_max":0,"o":"m 814 772 l 814 989 l 503 989 l 339 436 l 246 747 l 0 747 l 247 0 l 428 0 l 683 772 z "},"≈":{"ha":897,"x_min":0,"x_max":0,"o":"m 856 567 l 708 711 b 586 654 658 661 624 654 b 469 689 544 654 510 665 b 299 736 406 726 361 736 b 42 603 200 736 132 693 l 186 458 b 308 515 236 508 271 515 b 425 481 350 515 385 504 b 596 433 489 443 533 433 b 856 567 694 433 765 476 z m 856 214 l 711 358 b 589 301 661 308 626 301 b 472 336 547 301 513 313 b 301 383 408 374 364 383 b 42 250 203 383 132 340 l 189 106 b 311 163 239 156 274 163 b 428 128 353 163 388 151 b 599 81 492 90 536 81 b 856 214 697 81 765 124 z "},"Δ":{"ha":907,"x_min":0,"x_max":0,"o":"m 907 0 l 547 989 l 360 989 l 0 0 z m 589 203 l 322 203 l 460 614 z "}," ":{"ha":308,"x_min":0,"x_max":0,"o":""},"À":{"ha":907,"x_min":0,"x_max":0,"o":"m 907 0 l 547 989 l 360 989 l 0 0 l 254 0 l 303 147 l 607 147 l 653 0 z m 543 350 l 371 350 l 460 614 z m 533 1086 l 465 1336 l 232 1336 l 396 1086 z "},"Ã":{"ha":907,"x_min":0,"x_max":0,"o":"m 907 0 l 547 989 l 360 989 l 0 0 l 254 0 l 303 147 l 607 147 l 653 0 z m 543 350 l 371 350 l 460 614 z m 721 1188 l 624 1283 b 543 1246 590 1250 568 1246 b 467 1269 515 1246 493 1254 b 354 1300 425 1294 396 1300 b 185 1213 289 1300 244 1272 l 279 1117 b 360 1154 313 1150 335 1154 b 438 1131 388 1154 411 1146 b 550 1100 479 1106 508 1100 b 721 1188 615 1100 661 1128 z "},"Õ":{"ha":889,"x_min":0,"x_max":0,"o":"m 821 494 b 721 886 821 643 825 782 b 444 997 649 958 565 997 b 168 886 324 997 240 958 b 68 494 64 782 68 643 b 168 103 68 346 64 207 b 444 -8 240 31 324 -8 b 721 103 565 -8 649 31 b 821 494 825 207 821 346 z m 578 494 b 542 253 578 314 564 282 b 444 208 524 229 489 208 b 347 253 400 208 365 229 b 311 494 325 282 311 314 b 347 738 311 675 325 708 b 444 781 365 761 400 781 b 542 738 489 781 524 761 b 578 494 564 708 578 675 z m 713 1188 l 615 1283 b 535 1246 582 1250 560 1246 b 458 1269 507 1246 485 1254 b 346 1300 417 1294 388 1300 b 176 1213 281 1300 236 1272 l 271 1117 b 351 1154 304 1150 326 1154 b 429 1131 379 1154 403 1146 b 542 1100 471 1106 500 1100 b 713 1188 607 1100 653 1128 z "},"÷":{"ha":772,"x_min":0,"x_max":0,"o":"m 494 603 l 494 819 l 278 819 l 278 603 z m 713 303 l 713 517 l 60 517 l 60 303 z m 494 0 l 494 217 l 278 217 l 278 0 z "},"◊":{"ha":872,"x_min":0,"x_max":0,"o":"m 807 464 l 436 975 l 65 464 l 436 -47 z m 550 464 l 436 308 l 322 464 l 436 619 z "},"ÿ":{"ha":714,"x_min":0,"x_max":0,"o":"m 725 747 l 486 747 l 365 360 l 239 747 l 0 747 l 249 74 l 228 11 b 151 -44 213 -35 192 -44 l 103 -44 l 103 -250 l 189 -250 b 357 -187 256 -250 313 -235 b 415 -89 381 -164 400 -132 z m 607 846 l 607 1047 l 421 1047 l 421 846 z m 293 846 l 293 1047 l 107 1047 l 107 846 z "},"Ÿ":{"ha":840,"x_min":0,"x_max":0,"o":"m 840 989 l 575 989 l 421 633 l 265 989 l 0 989 l 299 403 l 299 0 l 542 0 l 542 403 z m 669 1085 l 669 1286 l 483 1286 l 483 1085 z m 356 1085 l 356 1286 l 169 1286 l 169 1085 z "},"Â":{"ha":907,"x_min":0,"x_max":0,"o":"m 907 0 l 547 989 l 360 989 l 0 0 l 254 0 l 303 147 l 607 147 l 653 0 z m 543 350 l 371 350 l 460 614 z m 729 1086 l 540 1335 l 365 1335 l 176 1086 l 343 1086 l 453 1201 l 563 1086 z "},"Ê":{"ha":844,"x_min":0,"x_max":0,"o":"m 772 0 l 772 217 l 343 217 l 343 390 l 710 390 l 710 607 l 343 607 l 343 772 l 772 772 l 772 989 l 100 989 l 100 0 z m 704 1086 l 515 1335 l 340 1335 l 151 1086 l 318 1086 l 428 1201 l 538 1086 z "},"Á":{"ha":907,"x_min":0,"x_max":0,"o":"m 907 0 l 547 989 l 360 989 l 0 0 l 254 0 l 303 147 l 607 147 l 653 0 z m 543 350 l 371 350 l 460 614 z m 674 1336 l 440 1336 l 372 1086 l 510 1086 z "},"Ë":{"ha":844,"x_min":0,"x_max":0,"o":"m 772 0 l 772 217 l 343 217 l 343 390 l 710 390 l 710 607 l 343 607 l 343 772 l 772 772 l 772 989 l 100 989 l 100 0 z m 678 1085 l 678 1286 l 492 1286 l 492 1085 z m 364 1085 l 364 1286 l 178 1286 l 178 1085 z "},"È":{"ha":844,"x_min":0,"x_max":0,"o":"m 772 0 l 772 217 l 343 217 l 343 390 l 710 390 l 710 607 l 343 607 l 343 772 l 772 772 l 772 989 l 100 989 l 100 0 z m 508 1086 l 440 1336 l 207 1336 l 371 1086 z "},"Í":{"ha":443,"x_min":0,"x_max":0,"o":"m 343 0 l 343 989 l 100 989 l 100 0 z m 443 1336 l 210 1336 l 142 1086 l 279 1086 z "},"Î":{"ha":443,"x_min":0,"x_max":0,"o":"m 343 0 l 343 989 l 100 989 l 100 0 z m 653 1086 l 464 1335 l 289 1335 l 100 1086 l 267 1086 l 376 1201 l 486 1086 z "},"Ï":{"ha":443,"x_min":0,"x_max":0,"o":"m 343 0 l 343 989 l 100 989 l 100 0 z m 600 1085 l 600 1286 l 414 1286 l 414 1085 z m 286 1085 l 286 1286 l 100 1286 l 100 1085 z "},"Ì":{"ha":443,"x_min":0,"x_max":0,"o":"m 343 0 l 343 989 l 100 989 l 100 0 z m 401 1086 l 333 1336 l 100 1336 l 264 1086 z "},"Ó":{"ha":889,"x_min":0,"x_max":0,"o":"m 821 494 b 721 886 821 643 825 782 b 444 997 649 958 565 997 b 168 886 324 997 240 958 b 68 494 64 782 68 643 b 168 103 68 346 64 207 b 444 -8 240 31 324 -8 b 721 103 565 -8 649 31 b 821 494 825 207 821 346 z m 578 494 b 542 253 578 314 564 282 b 444 208 524 229 489 208 b 347 253 400 208 365 229 b 311 494 325 282 311 314 b 347 738 311 675 325 708 b 444 781 365 761 400 781 b 542 738 489 781 524 761 b 578 494 564 708 578 675 z m 665 1336 l 432 1336 l 364 1086 l 501 1086 z "},"Ô":{"ha":889,"x_min":0,"x_max":0,"o":"m 821 494 b 721 886 821 643 825 782 b 444 997 649 958 565 997 b 168 886 324 997 240 958 b 68 494 64 782 68 643 b 168 103 68 346 64 207 b 444 -8 240 31 324 -8 b 721 103 565 -8 649 31 b 821 494 825 207 821 346 z m 578 494 b 542 253 578 314 564 282 b 444 208 524 229 489 208 b 347 253 400 208 365 229 b 311 494 325 282 311 314 b 347 738 311 675 325 708 b 444 781 365 761 400 781 b 542 738 489 781 524 761 b 578 494 564 708 578 675 z m 721 1086 l 532 1335 l 357 1335 l 168 1086 l 335 1086 l 444 1201 l 554 1086 z "},"Ò":{"ha":889,"x_min":0,"x_max":0,"o":"m 821 494 b 721 886 821 643 825 782 b 444 997 649 958 565 997 b 168 886 324 997 240 958 b 68 494 64 782 68 643 b 168 103 68 346 64 207 b 444 -8 240 31 324 -8 b 721 103 565 -8 649 31 b 821 494 825 207 821 346 z m 578 494 b 542 253 578 314 564 282 b 444 208 524 229 489 208 b 347 253 400 208 365 229 b 311 494 325 282 311 314 b 347 738 311 675 325 708 b 444 781 365 761 400 781 b 542 738 489 781 524 761 b 578 494 564 708 578 675 z m 525 1086 l 457 1336 l 224 1336 l 388 1086 z "},"Ú":{"ha":917,"x_min":0,"x_max":0,"o":"m 833 347 l 833 989 l 590 989 l 590 353 b 457 208 590 261 538 208 b 326 353 376 208 326 261 l 326 989 l 83 989 l 83 347 b 457 -8 83 131 251 -8 b 833 347 663 -8 833 131 z m 679 1336 l 446 1336 l 378 1086 l 515 1086 z "},"Û":{"ha":917,"x_min":0,"x_max":0,"o":"m 833 347 l 833 989 l 590 989 l 590 353 b 457 208 590 261 538 208 b 326 353 376 208 326 261 l 326 989 l 83 989 l 83 347 b 457 -8 83 131 251 -8 b 833 347 663 -8 833 131 z m 735 1086 l 546 1335 l 371 1335 l 182 1086 l 349 1086 l 458 1201 l 568 1086 z "},"Ù":{"ha":917,"x_min":0,"x_max":0,"o":"m 833 347 l 833 989 l 590 989 l 590 353 b 457 208 590 261 538 208 b 326 353 376 208 326 261 l 326 989 l 83 989 l 83 347 b 457 -8 83 131 251 -8 b 833 347 663 -8 833 131 z m 539 1086 l 471 1336 l 238 1336 l 401 1086 z "}}}
